<svg id="Layer_1" data-name="Layer 1" xmlns="http://www.w3.org/2000/svg" viewBox="0 0 146.31 65.13"><title>logo</title><path d="M248,346.4h-6.05a.72.72,0,0,1-.72-.73v-11a.58.58,0,0,1,.27-.52,1,1,0,0,1,.57-.17,1.08,1.08,0,0,1,.57.17.58.58,0,0,1,.27.52V345H248a.8.8,0,0,1,.54.2.7.7,0,0,1,.23.55.64.64,0,0,1-.23.5.8.8,0,0,1-.54.2" transform="translate(-240.24 -281.39)" fill="#fff"/><path d="M260,346.29h-6a.69.69,0,0,1-.51-.21.7.7,0,0,1-.22-.51V334.73a.7.7,0,0,1,.22-.51A.69.69,0,0,1,254,334h6a.8.8,0,0,1,.54.2.69.69,0,0,1,.23.55.66.66,0,0,1-.23.5.79.79,0,0,1-.54.19h-5.09v4h4.4a.82.82,0,0,1,.54.2.65.65,0,0,1,.22.52.68.68,0,0,1-.22.53.81.81,0,0,1-.54.19h-4.4v4H260a.8.8,0,0,1,.54.2.69.69,0,0,1,.23.55.66.66,0,0,1-.23.5.79.79,0,0,1-.54.19" transform="translate(-240.24 -281.39)" fill="#fff"/><path d="M274.71,346.51a.75.75,0,0,1-.78-.48l-1.36-3.36H268l-1.4,3.37a.63.63,0,0,1-.63.47.72.72,0,0,1-.72-.72.86.86,0,0,1,0-.27l4.48-11.08a.64.64,0,0,1,.63-.46.64.64,0,0,1,.63.46l4.48,11.08a.65.65,0,0,1,.05.27.6.6,0,0,1-.26.53,1,1,0,0,1-.58.19m-2.7-5.23-1.73-4.36-1.74,4.36Z" transform="translate(-240.24 -281.39)" fill="#fff"/><path d="M288.12,346.53a.67.67,0,0,1-.58-.33l-5.86-8.76v8.36a.72.72,0,1,1-1.44,0V334.71a.71.71,0,0,1,1.31-.39l5.86,8.76v-8.37a.69.69,0,0,1,.21-.51.68.68,0,0,1,.51-.21.69.69,0,0,1,.5.21.67.67,0,0,1,.22.51V345.8a.67.67,0,0,1-.22.52.69.69,0,0,1-.51.21" transform="translate(-240.24 -281.39)" fill="#fff"/><path d="M297.59,346.31H294a.72.72,0,0,1-.72-.72V334.75A.72.72,0,0,1,294,334h3.64a6,6,0,0,1,3.16.79,5.1,5.1,0,0,1,2,2.17,7,7,0,0,1,.69,3.19,6.29,6.29,0,0,1-1.52,4.39,5.66,5.66,0,0,1-4.32,1.75m-.22-1.45a4.19,4.19,0,0,0,3.28-1.31,5,5,0,0,0,1.1-3.38,5.72,5.72,0,0,0-.49-2.46,3.58,3.58,0,0,0-1.47-1.65,4.55,4.55,0,0,0-2.42-.59H294.9v9.39Z" transform="translate(-240.24 -281.39)" fill="#fff"/><path d="M315.09,346.32h-6a.73.73,0,0,1-.51-.21.69.69,0,0,1-.21-.51V334.76a.69.69,0,0,1,.21-.51A.73.73,0,0,1,309,334h6a.79.79,0,0,1,.54.19.71.71,0,0,1,.22.55.63.63,0,0,1-.22.5.8.8,0,0,1-.54.2H310v4h4.39a.79.79,0,0,1,.54.19.69.69,0,0,1,.23.53.65.65,0,0,1-.23.52.8.8,0,0,1-.54.2H310v4h5.09a.79.79,0,0,1,.54.19.71.71,0,0,1,.22.55.62.62,0,0,1-.22.5.8.8,0,0,1-.54.2" transform="translate(-240.24 -281.39)" fill="#fff"/><path d="M327.8,346.42a.79.79,0,0,1-.64-.33l-3.43-4.52H322.2v4.15a.6.6,0,0,1-.26.52,1.06,1.06,0,0,1-.57.17,1.09,1.09,0,0,1-.58-.17.6.6,0,0,1-.26-.52v-11a.72.72,0,0,1,.72-.73h3a5.05,5.05,0,0,1,3.07.87,3.25,3.25,0,0,1,1.32,2.81,3.5,3.5,0,0,1-.42,1.78,3.28,3.28,0,0,1-1.12,1.16,5.22,5.22,0,0,1-1.56.67l3,3.93a.79.79,0,0,1,.14.44.66.66,0,0,1-.26.55.91.91,0,0,1-.6.2M323,340.14a7.16,7.16,0,0,0,2.63-.4,2.3,2.3,0,0,0,.93-3.38,2.25,2.25,0,0,0-1-.69,4.45,4.45,0,0,0-1.39-.21H322.2v4.68Z" transform="translate(-240.24 -281.39)" fill="#fff"/><path d="M340.69,346.41a1,1,0,0,1-.57-.18.57.57,0,0,1-.27-.52v-11a.72.72,0,0,1,.72-.72h3a5.08,5.08,0,0,1,3.08.87,3.62,3.62,0,0,1-.47,5.9,7.82,7.82,0,0,1-3.74.8h-.94v4.14a.56.56,0,0,1-.26.52,1,1,0,0,1-.57.18m1.66-6.28a7,7,0,0,0,2.64-.41,2.29,2.29,0,0,0,.92-3.37,2.27,2.27,0,0,0-1.05-.7,4.43,4.43,0,0,0-1.38-.21h-2v4.69Z" transform="translate(-240.24 -281.39)" fill="#fff"/><path d="M359.1,346.5a.76.76,0,0,1-.79-.48L357,342.66h-4.6L351,346a.66.66,0,0,1-.63.47.69.69,0,0,1-.51-.21.73.73,0,0,1-.21-.51.76.76,0,0,1,.05-.27l4.47-11.08a.66.66,0,0,1,1.27,0l4.48,11.08a.76.76,0,0,1,.05.27.62.62,0,0,1-.27.53.91.91,0,0,1-.57.19m-2.7-5.24-1.74-4.35-1.74,4.35Z" transform="translate(-240.24 -281.39)" fill="#fff"/><path d="M371.37,346.28h-6.05a.72.72,0,0,1-.72-.72V334.72a.72.72,0,0,1,.72-.72h6.05a.78.78,0,0,1,.53.19.68.68,0,0,1,.23.55.61.61,0,0,1-.23.5.79.79,0,0,1-.53.2h-5.1v4h4.4a.79.79,0,0,1,.54.19.68.68,0,0,1,.22.53.65.65,0,0,1-.22.52.8.8,0,0,1-.54.2h-4.4v4h5.1a.78.78,0,0,1,.53.19.68.68,0,0,1,.23.55.61.61,0,0,1-.23.5.79.79,0,0,1-.53.2" transform="translate(-240.24 -281.39)" fill="#fff"/><path d="M381.22,346.39a6.74,6.74,0,0,1-4.33-1.41.67.67,0,0,1-.28-.55.72.72,0,0,1,.72-.72.67.67,0,0,1,.45.16,5.44,5.44,0,0,0,3.44,1.08,3.69,3.69,0,0,0,1.82-.45,1.63,1.63,0,0,0,1-1.49,1.29,1.29,0,0,0-.43-1,3.57,3.57,0,0,0-1.1-.69c-.45-.2-.94-.39-1.48-.57s-.94-.34-1.41-.53a6.65,6.65,0,0,1-1.27-.68,3.08,3.08,0,0,1-.93-.94,2.5,2.5,0,0,1-.35-1.34,3,3,0,0,1,1.29-2.6,4.94,4.94,0,0,1,2.88-.8,7.52,7.52,0,0,1,2,.27A5.56,5.56,0,0,1,385,335a.7.7,0,0,1,.31.57.67.67,0,0,1-.22.52.7.7,0,0,1-.92.07,4.29,4.29,0,0,0-1.41-.62,5.9,5.9,0,0,0-1.51-.21,3.61,3.61,0,0,0-1.74.39,1.5,1.5,0,0,0-.87,1.42,1.15,1.15,0,0,0,.4.9,3.57,3.57,0,0,0,1,.65c.43.18.9.36,1.41.53s1,.35,1.45.54a6.75,6.75,0,0,1,1.33.72,3.42,3.42,0,0,1,1,1,2.57,2.57,0,0,1,.37,1.42,3.1,3.1,0,0,1-.38,1.55,3.29,3.29,0,0,1-1,1.1,4.49,4.49,0,0,1-1.4.65,5.56,5.56,0,0,1-1.57.22" transform="translate(-240.24 -281.39)" fill="#fff"/><path d="M386.18,304.72a8.78,8.78,0,0,0-3.72-4.19c-3.95-2.48-10.2-2.63-12.12,3.63a5.92,5.92,0,0,1-3.61,3.94c-1.54.63-3.14,1.44-5,.25-1.35-.88-3.06-1.16-4.58-1.76a9.54,9.54,0,0,0-4.92-.41,4.07,4.07,0,0,1-2.1-.4,12.41,12.41,0,0,0-3.3-1.13,24.27,24.27,0,0,1-6-1.51,5,5,0,0,1-2.58-1.36c-1.4-1.74-3.05-3.19-5.45-3.39-.62-.05-2-.56-1.78-1.49.62-.58,1.39,0,2.16.05s1.35-1,1.42-1.44.5-.42.69-.7.22-.4-.26-.49c-.18,0,.66-.25.74-.39.17-.29.1-.7.19-.91.18-.39.95-.38.71-.89-1.7-2.18-.71-1.84-.65-2.87a2.58,2.58,0,0,0-.15-2c-.07-.12.41.1.52.81.07.51.34-.43.33-.88a1.87,1.87,0,0,0-.12-.66,4.91,4.91,0,0,0-1-1.63c-.21-.26.49.16.68.47.44.7,0-.51-.5-1.13s-2.38-2.27-3.59-2.37a17.37,17.37,0,0,0-3.37-.47c-2.31.48-3.23,1.42-3.67,2.35-.16.34.57-.62-.41.73a5.2,5.2,0,0,0-.57,1.09c-.89,2.53-.26,2.27-.22,2.61,0,.16-.1.29-.08.44.06.5-.13.46-.21.61s0,.36-.15.5c-.41.36-.93-.36-1.21.13-.54.93-1.08,1-2,1.24-3,.73-5.76,3-8.38,4.6a6.24,6.24,0,0,1-5.44.7c-1.24-.4-2.48-.59-3.47.59-.33.39-.63.41-1,0a2.71,2.71,0,0,0-2.36-.72c-2.07.1-4.13.47-6.2,0a3.08,3.08,0,0,0-2.66,1.09,5.68,5.68,0,0,1-2.92,1.28c-4.46.82-9,1.12-13.47,1.6a4.32,4.32,0,0,1-2.38-.34,17.94,17.94,0,0,0-9.15-1.38,42.79,42.79,0,0,0-5.67.48,6.93,6.93,0,0,1-5.53-1.41c-.19-.13-.39-.24-.58-.36-2.42-1.51-2.68-1.47-4.46.85a2.2,2.2,0,0,1-1.2.83c-2.73.67-4.16,2.54-4.87,5.11-.07.23,0,.56-.39.66l.26,2.43c.65,1,1.29,1.05,2.26.26,2-1.6,4.53-2,6.89-2.7.5-.15,1.13.22,1.71.25s1.2.23.79-.79c-.26-.66.51-.63.81-.71a12.91,12.91,0,0,1,4.72-.13,58.83,58.83,0,0,1,17.95,4.31c2.69,1.16,5.61.76,8.44,1,.46,0,1.21-.34,1.31.22a1.94,1.94,0,0,1-.44,1.89c-1.21,1.09-2.48,2.12-3.58,3.32a9.89,9.89,0,0,1-9.45,3.4c-3.25-.5-6.45.62-9.65,1.19-.75.14-1.52.24-2.26.44-2.83.74-5.19-.28-7.41-1.88a1.42,1.42,0,0,0-2.25.55,4.81,4.81,0,0,0-.5,2.37,42.24,42.24,0,0,1-.67,6.45c-.21,2,.07,3.8,2.05,4.87l1.08-.11a3,3,0,0,0,.69-1.55c.3-1.84,1.66-2.63,3.22-3.2.89-.33,1.79-.62,2.69-.9.52-.16.78-.44.62-1-.25-.9.21-1.07,1-1.07,3.88,0,7.77.11,11.66,0,3-.07,6,.13,8.91-.68,4.58-1.29,9.21-2.57,13.19-5.38a1,1,0,0,1,.62-.2c1.65.21,2.67-.75,3.67-1.86a28.45,28.45,0,0,1,2.46-2.32,6.8,6.8,0,0,1,4.66-1.91,74.12,74.12,0,0,0,10.21-.84l.1-.06,1.25-.14a1,1,0,0,1,1,.48c.38.63.75,1.27,1.12,1.91.54.95,1.06,1.92,1.63,2.86a22.38,22.38,0,0,0,1.44,2.11c.54.69,1.15,1.32,1.75,2,.35.39.75.73,1.11,1.11s.41.58.65.84a2.73,2.73,0,0,0,2.46,1c.4,0,.79-.05,1.19-.08a2.62,2.62,0,0,0,1.16-.23,8.66,8.66,0,0,1,1.08-.48,1.33,1.33,0,0,0,.71-.63.84.84,0,0,1,.35-.35c.34-.18.69-.33,1-.49a.56.56,0,0,0,.41-.48.61.61,0,0,0-.19-.42,1.31,1.31,0,0,0-1.4,0c-.28.2-.56.38-.84.56a.62.62,0,0,1-.23,0,.6.6,0,0,1,0-.23,2.73,2.73,0,0,1,1.26-1.23c.67-.35,1.38-.59,2.07-.88a1.45,1.45,0,0,0,.34-.2.51.51,0,0,0,.16-.61.49.49,0,0,0-.58-.3,2.47,2.47,0,0,0-.52.18,1.15,1.15,0,0,1-.75.12,1,1,0,0,0-.41,0,17.18,17.18,0,0,1-3.26.46,2.36,2.36,0,0,0-.51.12.72.72,0,0,1-.35,0,.56.56,0,0,0-.61.21c-.23.28-.49.54-.72.82s-.23.13-.32,0c-.19-.32-.4-.63-.56-1s-.25-.68-.41-1a13.26,13.26,0,0,1-1.31-4,20.4,20.4,0,0,1-.12-4.75c0-.05,0-.09,0-.14.17-.58.6-.78,1.32-.87,3.27-.45,6.47-.53,9.44,1.27a6.61,6.61,0,0,0,1.25.53c5,1.76,10,3.49,15.41,2.34a34.11,34.11,0,0,1,4.06-.16,1.7,1.7,0,0,1,2,1,1.3,1.3,0,0,0,1.74.8,14.42,14.42,0,0,1,1.88-.26c.46-.05.9-.1.93-.74s.38-.66.84-.65.43.47.5.79,0,.67.48.62.38-.39.39-.69c0-.46-.27-1,.4-1.28,2.7-1.08,5.46-1.67,8.33-.79a40.75,40.75,0,0,0,4.72,1.19,7.94,7.94,0,0,0,5.87-1,3.71,3.71,0,0,0,1.57-4.93m-17,3.4a19.32,19.32,0,0,1,1.57-1.95c.63.6,1.4,1.3,2.42,2.23l-4-.28m15.46.38a8.91,8.91,0,0,1-3.73,1.39,10.08,10.08,0,0,1-9.08-4.29,2.28,2.28,0,0,1-.17-2.53c1.62-3.53,5.81-4.29,9.57-2.15a10.62,10.62,0,0,1,3.54,2.9c.78,1,1.42,3.34-.13,4.68" transform="translate(-240.24 -281.39)" fill="#fff"/><path d="M374.82,293.37a2.24,2.24,0,0,0,1.88-2.55,2.18,2.18,0,0,0-2.46-1.81,2.15,2.15,0,0,0-1.87,2.53,2.2,2.2,0,0,0,2.45,1.83" transform="translate(-240.24 -281.39)" fill="#fff"/></svg>